<svg width="333" height="86" viewBox="0 0 333 86" fill="none" xmlns="http://www.w3.org/2000/svg">
<path d="M44.9928 6.912C44.9928 8.192 44.7154 9.152 44.1608 9.792C43.6488 10.432 42.7954 10.752 41.6008 10.752C41.5154 11.648 41.3234 13.2053 41.0248 15.424C40.5981 18.4107 40.3634 20.0747 40.3208 20.416C36.5234 48.704 28.6088 62.848 16.5768 62.848C13.0354 62.848 10.2621 61.8453 8.25675 59.84C6.29408 57.8347 5.31275 55.3173 5.31275 52.288C5.31275 46.8693 7.61675 42.0907 12.2248 37.952C16.8328 33.7707 22.8914 30.3147 30.4008 27.584C30.8701 24.5547 31.2328 21.8453 31.4888 19.456L32.6408 9.792C30.0808 9.536 27.6914 9.408 25.4728 9.408C19.5421 9.408 15.1688 9.984 12.3528 11.136C9.53675 12.288 8.12875 14.1653 8.12875 16.768C8.12875 18.048 8.55542 19.4347 9.40875 20.928C9.66475 21.3547 9.79275 21.8027 9.79275 22.272C9.79275 23.168 9.32342 23.9787 8.38475 24.704C7.48875 25.3867 6.50742 25.728 5.44075 25.728C4.07542 25.728 3.03008 25.152 2.30475 24C1.11008 22.0373 0.51275 19.7547 0.51275 17.152C0.51275 6.912 9.47275 1.792 27.3928 1.792C32.5981 1.792 37.2488 2.304 41.3448 3.328C43.7768 3.92533 44.9928 5.12 44.9928 6.912ZM17.4088 56C19.4994 56 21.5901 54.4213 23.6808 51.264C25.7714 48.1067 27.6061 42.5813 29.1848 34.688C18.7741 39.2533 13.5688 44.8427 13.5688 51.456C13.5688 52.9067 13.9101 54.0373 14.5928 54.848C15.2754 55.616 16.2141 56 17.4088 56ZM50.5688 56.32C48.6488 56.32 47.0701 55.4453 45.8328 53.696C44.6381 51.904 44.0408 49.6853 44.0408 47.04C44.0408 43.84 44.2541 40.9173 44.6808 38.272C45.1074 35.584 45.8114 32.7467 46.7928 29.76C47.2194 28.48 47.8168 27.5627 48.5848 27.008C49.3528 26.4533 50.5688 26.176 52.2328 26.176C53.1714 26.176 53.8114 26.3253 54.1528 26.624C54.5368 26.9227 54.7288 27.3707 54.7288 27.968C54.7288 28.3093 54.4941 29.4613 54.0248 31.424C53.5981 33.0027 53.2568 34.432 53.0008 35.712C52.1474 40.192 51.7208 43.1787 51.7208 44.672C51.7208 45.568 51.8274 46.208 52.0408 46.592C52.2541 46.9333 52.5954 47.104 53.0648 47.104C53.7048 47.104 54.4941 46.464 55.4328 45.184C56.4141 43.904 57.4381 41.9627 58.5048 39.36C59.6141 36.7573 60.6808 33.5573 61.7048 29.76C62.0461 28.48 62.5581 27.5627 63.2408 27.008C63.9661 26.4533 65.0328 26.176 66.4408 26.176C67.4221 26.176 68.1048 26.304 68.4888 26.56C68.8728 26.7733 69.0648 27.2 69.0648 27.84C69.0648 28.9067 68.5314 31.8293 67.4648 36.608C66.2701 42.0693 65.6728 45.44 65.6728 46.72C65.6728 47.5307 65.8434 48.1707 66.1848 48.64C66.5261 49.0667 66.9741 49.28 67.5288 49.28C68.3821 49.28 69.3848 48.768 70.5368 47.744C71.7314 46.6773 73.3101 44.9707 75.2728 42.624C75.7848 42.0267 76.3608 41.728 77.0008 41.728C77.5554 41.728 77.9821 41.984 78.2808 42.496C78.6221 43.008 78.7928 43.712 78.7928 44.608C78.7928 46.3147 78.3874 47.6373 77.5768 48.576C75.7421 50.8373 73.7581 52.6933 71.6248 54.144C69.5341 55.5947 67.1448 56.32 64.4568 56.32C62.4088 56.32 60.8941 55.5307 59.9128 53.952C58.9741 52.3733 58.5048 50.1547 58.5048 47.296C57.7794 50.1973 56.6914 52.4373 55.2408 54.016C53.7901 55.552 52.2328 56.32 50.5688 56.32ZM85.5073 57.728C83.2886 57.728 81.5819 57.216 80.3873 56.192C79.2353 55.168 78.6593 54.016 78.6593 52.736C78.6593 51.6267 79.0646 50.6667 79.8753 49.856C80.6859 49.0453 81.8806 48.64 83.4593 48.64C84.0139 48.64 84.6539 48.704 85.3793 48.832C86.1473 48.9173 86.7233 48.9813 87.1073 49.024C87.0646 47.9147 86.8086 46.8693 86.3393 45.888C85.9126 44.9067 85.3579 43.968 84.6753 43.072C83.9926 42.1333 83.3526 41.3227 82.7553 40.64C81.4326 43.1573 80.1099 45.248 78.7873 46.912C77.5073 48.576 76.0993 50.1547 74.5633 51.648C73.7953 52.416 72.9846 52.8 72.1313 52.8C71.4486 52.8 70.8939 52.5653 70.4672 52.096C70.0406 51.584 69.8272 50.9653 69.8272 50.24C69.8272 49.3867 70.1259 48.5973 70.7233 47.872L71.5553 46.848C73.9019 43.9467 75.6726 41.5573 76.8673 39.68C77.5926 38.4427 78.4459 36.8 79.4273 34.752C80.4086 32.6613 81.3686 30.5067 82.3073 28.288C83.1179 26.4107 84.8033 25.472 87.3633 25.472C88.5579 25.472 89.3899 25.5787 89.8593 25.792C90.3286 26.0053 90.5633 26.3467 90.5633 26.816C90.5633 27.072 90.4779 27.4773 90.3073 28.032C90.1366 28.5867 89.9019 29.1413 89.6033 29.696C88.8353 31.232 88.4513 32.5333 88.4513 33.6C88.4513 34.24 88.6646 34.944 89.0913 35.712C89.5606 36.48 90.2646 37.44 91.2033 38.592C92.5686 40.384 93.5926 41.92 94.2753 43.2C95.0006 44.4373 95.3633 45.8027 95.3633 47.296C95.3633 47.7227 95.3206 48.32 95.2353 49.088C97.3259 48.2773 99.7793 46.1227 102.595 42.624C103.107 42.0267 103.683 41.728 104.323 41.728C104.878 41.728 105.305 41.984 105.603 42.496C105.945 43.008 106.115 43.712 106.115 44.608C106.115 46.2293 105.71 47.552 104.899 48.576C102.766 51.2213 100.718 53.0347 98.7553 54.016C96.8353 54.9547 94.4459 55.4667 91.5873 55.552C89.8806 57.0027 87.8539 57.728 85.5073 57.728ZM111.476 32.256C111.39 34.3893 111.348 36.0533 111.348 37.248C111.348 40.32 111.497 42.7307 111.796 44.48C112.137 46.1867 112.67 47.424 113.396 48.192C114.164 48.9173 115.209 49.28 116.532 49.28C117.214 49.28 118.025 49.0667 118.964 48.64C119.902 48.2133 120.756 47.6587 121.524 46.976C121.993 46.5493 122.462 46.336 122.932 46.336C123.444 46.336 123.849 46.6347 124.148 47.232C124.489 47.7867 124.66 48.4693 124.66 49.28C124.66 50.0907 124.489 50.88 124.148 51.648C123.849 52.416 123.38 53.056 122.74 53.568C120.521 55.4027 118.004 56.32 115.188 56.32C111.134 56.32 108.169 54.6347 106.292 51.264C104.414 47.8507 103.476 43.4133 103.476 37.952C103.476 36.0747 103.54 34.176 103.668 32.256H101.172C99.8918 32.256 99.0171 32.0213 98.5478 31.552C98.1211 31.0827 97.9078 30.336 97.9078 29.312C97.9078 26.9227 98.8678 25.728 100.788 25.728H104.436C105.161 21.0347 106.27 16.7467 107.764 12.864C109.257 8.98133 111.049 5.888 113.14 3.584C115.273 1.28 117.556 0.127998 119.988 0.127998C121.78 0.127998 123.188 0.917332 124.212 2.496C125.236 4.07467 125.748 6.05866 125.748 8.448C125.748 15.0613 122.974 20.8213 117.428 25.728H124.596C125.278 25.728 125.769 25.8773 126.068 26.176C126.366 26.4747 126.516 27.0293 126.516 27.84C126.516 30.784 124.105 32.256 119.284 32.256H111.476ZM118.26 6.272C117.62 6.272 116.894 7.08267 116.084 8.704C115.316 10.2827 114.569 12.5013 113.844 15.36C113.161 18.176 112.585 21.312 112.116 24.768C114.633 22.592 116.51 20.16 117.748 17.472C119.028 14.7413 119.668 12.2667 119.668 10.048C119.668 7.53067 119.198 6.272 118.26 6.272Z" fill="black"/>
<path d="M173.305 6.912C173.305 8.192 173.028 9.152 172.473 9.792C171.961 10.432 171.108 10.752 169.913 10.752C169.828 11.648 169.636 13.2053 169.337 15.424C168.911 18.4107 168.676 20.0747 168.633 20.416C164.836 48.704 156.921 62.848 144.889 62.848C141.348 62.848 138.575 61.8453 136.569 59.84C134.607 57.8347 133.625 55.3173 133.625 52.288C133.625 46.8693 135.929 42.0907 140.537 37.952C145.145 33.7707 151.204 30.3147 158.713 27.584C159.183 24.5547 159.545 21.8453 159.801 19.456L160.953 9.792C158.393 9.536 156.004 9.408 153.785 9.408C147.855 9.408 143.481 9.984 140.665 11.136C137.849 12.288 136.441 14.1653 136.441 16.768C136.441 18.048 136.868 19.4347 137.721 20.928C137.977 21.3547 138.105 21.8027 138.105 22.272C138.105 23.168 137.636 23.9787 136.697 24.704C135.801 25.3867 134.82 25.728 133.753 25.728C132.388 25.728 131.343 25.152 130.617 24C129.423 22.0373 128.825 19.7547 128.825 17.152C128.825 6.912 137.785 1.792 155.705 1.792C160.911 1.792 165.561 2.304 169.657 3.328C172.089 3.92533 173.305 5.12 173.305 6.912ZM145.721 56C147.812 56 149.903 54.4213 151.993 51.264C154.084 48.1067 155.919 42.5813 157.497 34.688C147.087 39.2533 141.881 44.8427 141.881 51.456C141.881 52.9067 142.223 54.0373 142.905 54.848C143.588 55.616 144.527 56 145.721 56ZM204.681 36.352C205.235 36.352 205.662 36.6293 205.961 37.184C206.259 37.7387 206.409 38.4427 206.409 39.296C206.409 41.344 205.79 42.56 204.553 42.944C201.993 43.84 199.177 44.352 196.105 44.48C195.294 48.064 193.694 50.944 191.305 53.12C188.915 55.2533 186.206 56.32 183.177 56.32C180.617 56.32 178.419 55.7013 176.585 54.464C174.793 53.2267 173.427 51.584 172.489 49.536C171.55 47.488 171.081 45.2693 171.081 42.88C171.081 39.6373 171.699 36.7573 172.937 34.24C174.174 31.68 175.881 29.696 178.057 28.288C180.233 26.8373 182.643 26.112 185.289 26.112C188.531 26.112 191.134 27.2427 193.097 29.504C195.102 31.7227 196.275 34.4747 196.617 37.76C198.622 37.632 201.011 37.2053 203.785 36.48C204.126 36.3947 204.425 36.352 204.681 36.352ZM183.689 49.536C185.054 49.536 186.227 48.9813 187.209 47.872C188.233 46.7627 188.915 45.1627 189.257 43.072C187.934 42.176 186.91 41.0027 186.185 39.552C185.502 38.1013 185.161 36.5653 185.161 34.944C185.161 34.2613 185.225 33.5787 185.353 32.896H185.033C183.326 32.896 181.897 33.728 180.745 35.392C179.635 37.0133 179.081 39.3173 179.081 42.304C179.081 44.6507 179.529 46.4427 180.425 47.68C181.363 48.9173 182.451 49.536 183.689 49.536ZM233.684 41.856C234.238 41.856 234.665 42.1333 234.964 42.688C235.305 43.2 235.476 43.8613 235.476 44.672C235.476 45.6533 235.326 46.4213 235.028 46.976C234.729 47.5307 234.26 48.0213 233.62 48.448C229.95 50.9227 227.262 52.7573 225.556 53.952L221.46 56.704C219.838 65.536 217.705 72.4693 215.06 77.504C212.457 82.5813 209.129 85.12 205.076 85.12C202.9 85.12 201.129 84.4373 199.764 83.072C198.398 81.7493 197.716 80 197.716 77.824C197.716 74.7947 198.91 71.5307 201.3 68.032C203.689 64.576 208.169 60.3093 214.74 55.232L215.124 52.736C214.398 53.888 213.438 54.784 212.244 55.424C211.092 56.0213 209.94 56.32 208.788 56.32C206.142 56.32 204.03 55.36 202.452 53.44C200.873 51.52 200.084 49.0027 200.084 45.888C200.084 42.4747 200.873 39.2533 202.452 36.224C204.03 33.152 206.121 30.6987 208.724 28.864C211.369 26.9867 214.164 26.048 217.108 26.048C218.046 26.048 218.665 26.24 218.964 26.624C219.305 26.9653 219.582 27.6053 219.796 28.544C220.606 28.3733 221.545 28.288 222.612 28.288C223.678 28.288 224.425 28.4587 224.852 28.8C225.321 29.0987 225.556 29.7173 225.556 30.656C225.556 31.168 225.534 31.5733 225.492 31.872C225.321 33.1947 224.788 36.544 223.892 41.92C223.721 42.944 223.529 44.0747 223.316 45.312C223.145 46.5067 222.953 47.7867 222.74 49.152C226.025 46.592 229.182 44.3307 232.212 42.368C232.766 42.0267 233.257 41.856 233.684 41.856ZM211.092 49.856C212.073 49.856 213.012 49.2587 213.908 48.064C214.804 46.8693 215.444 45.1627 215.828 42.944L217.876 32C216.126 32.0427 214.505 32.7253 213.012 34.048C211.518 35.328 210.324 37.0347 209.428 39.168C208.532 41.3013 208.084 43.5627 208.084 45.952C208.084 47.2747 208.34 48.256 208.852 48.896C209.406 49.536 210.153 49.856 211.092 49.856ZM205.78 78.912C206.846 78.912 208.041 77.632 209.364 75.072C210.729 72.512 212.03 68.4373 213.268 62.848C209.982 65.664 207.614 68.2027 206.164 70.464C204.713 72.7253 203.988 74.7093 203.988 76.416C203.988 77.1413 204.116 77.7387 204.372 78.208C204.67 78.6773 205.14 78.912 205.78 78.912ZM263.684 41.856C264.238 41.856 264.665 42.1333 264.964 42.688C265.305 43.2 265.476 43.8613 265.476 44.672C265.476 45.6533 265.326 46.4213 265.028 46.976C264.729 47.5307 264.26 48.0213 263.62 48.448C259.95 50.9227 257.262 52.7573 255.556 53.952L251.46 56.704C249.838 65.536 247.705 72.4693 245.06 77.504C242.457 82.5813 239.129 85.12 235.076 85.12C232.9 85.12 231.129 84.4373 229.764 83.072C228.398 81.7493 227.716 80 227.716 77.824C227.716 74.7947 228.91 71.5307 231.3 68.032C233.689 64.576 238.169 60.3093 244.74 55.232L245.124 52.736C244.398 53.888 243.438 54.784 242.244 55.424C241.092 56.0213 239.94 56.32 238.788 56.32C236.142 56.32 234.03 55.36 232.452 53.44C230.873 51.52 230.084 49.0027 230.084 45.888C230.084 42.4747 230.873 39.2533 232.452 36.224C234.03 33.152 236.121 30.6987 238.724 28.864C241.369 26.9867 244.164 26.048 247.108 26.048C248.046 26.048 248.665 26.24 248.964 26.624C249.305 26.9653 249.582 27.6053 249.796 28.544C250.606 28.3733 251.545 28.288 252.612 28.288C253.678 28.288 254.425 28.4587 254.852 28.8C255.321 29.0987 255.556 29.7173 255.556 30.656C255.556 31.168 255.534 31.5733 255.492 31.872C255.321 33.1947 254.788 36.544 253.892 41.92C253.721 42.944 253.529 44.0747 253.316 45.312C253.145 46.5067 252.953 47.7867 252.74 49.152C256.025 46.592 259.182 44.3307 262.212 42.368C262.766 42.0267 263.257 41.856 263.684 41.856ZM241.092 49.856C242.073 49.856 243.012 49.2587 243.908 48.064C244.804 46.8693 245.444 45.1627 245.828 42.944L247.876 32C246.126 32.0427 244.505 32.7253 243.012 34.048C241.518 35.328 240.324 37.0347 239.428 39.168C238.532 41.3013 238.084 43.5627 238.084 45.952C238.084 47.2747 238.34 48.256 238.852 48.896C239.406 49.536 240.153 49.856 241.092 49.856ZM235.78 78.912C236.846 78.912 238.041 77.632 239.364 75.072C240.729 72.512 242.03 68.4373 243.268 62.848C239.982 65.664 237.614 68.2027 236.164 70.464C234.713 72.7253 233.988 74.7093 233.988 76.416C233.988 77.1413 234.116 77.7387 234.372 78.208C234.67 78.6773 235.14 78.912 235.78 78.912ZM269.237 21.952C267.445 21.952 266.101 21.5467 265.205 20.736C264.309 19.8827 263.861 18.7093 263.861 17.216C263.861 15.7227 264.437 14.4853 265.589 13.504C266.784 12.48 268.256 11.968 270.005 11.968C271.584 11.968 272.864 12.352 273.845 13.12C274.827 13.888 275.317 14.976 275.317 16.384C275.317 18.0907 274.763 19.456 273.653 20.48C272.544 21.4613 271.072 21.952 269.237 21.952ZM268.725 56.32C265.952 56.32 263.925 55.3387 262.645 53.376C261.408 51.4133 260.789 48.8107 260.789 45.568C260.789 43.648 261.024 41.1947 261.493 38.208C262.005 35.1787 262.645 32.3627 263.413 29.76C263.797 28.3947 264.309 27.456 264.949 26.944C265.589 26.432 266.613 26.176 268.021 26.176C270.197 26.176 271.285 26.9013 271.285 28.352C271.285 29.4187 270.88 31.8933 270.069 35.776C269.045 40.4693 268.533 43.648 268.533 45.312C268.533 46.592 268.704 47.5733 269.045 48.256C269.387 48.9387 269.963 49.28 270.773 49.28C271.541 49.28 272.501 48.7467 273.653 47.68C274.805 46.6133 276.341 44.928 278.261 42.624C278.773 42.0267 279.349 41.728 279.989 41.728C280.544 41.728 280.971 41.984 281.269 42.496C281.611 43.008 281.781 43.712 281.781 44.608C281.781 46.3147 281.376 47.6373 280.565 48.576C276.341 53.7387 272.395 56.32 268.725 56.32ZM281.147 56.32C279.526 56.32 278.374 55.4667 277.691 53.76C277.051 52.0533 276.731 49.3227 276.731 45.568C276.731 40.0213 277.521 34.752 279.099 29.76C279.483 28.5227 280.102 27.6267 280.955 27.072C281.851 26.4747 283.089 26.176 284.667 26.176C285.521 26.176 286.118 26.2827 286.459 26.496C286.801 26.7093 286.971 27.1147 286.971 27.712C286.971 28.3947 286.651 29.9307 286.011 32.32C285.585 34.0267 285.243 35.52 284.987 36.8C284.731 38.08 284.518 39.6587 284.347 41.536C285.755 37.8667 287.334 34.88 289.083 32.576C290.833 30.272 292.539 28.6293 294.203 27.648C295.91 26.6667 297.467 26.176 298.875 26.176C301.649 26.176 303.035 27.5627 303.035 30.336C303.035 32 302.566 35.008 301.627 39.36C300.817 43.072 300.411 45.5253 300.411 46.72C300.411 48.4267 301.03 49.28 302.267 49.28C303.121 49.28 304.123 48.768 305.275 47.744C306.47 46.6773 308.049 44.9707 310.011 42.624C310.523 42.0267 311.099 41.728 311.739 41.728C312.294 41.728 312.721 41.984 313.019 42.496C313.361 43.008 313.531 43.712 313.531 44.608C313.531 46.3147 313.126 47.6373 312.315 48.576C310.481 50.8373 308.497 52.6933 306.363 54.144C304.273 55.5947 301.883 56.32 299.195 56.32C297.019 56.32 295.377 55.7013 294.267 54.464C293.158 53.184 292.603 51.3493 292.603 48.96C292.603 47.7653 292.902 45.632 293.499 42.56C294.054 39.872 294.331 38.016 294.331 36.992C294.331 36.3093 294.097 35.968 293.627 35.968C293.073 35.968 292.283 36.6933 291.259 38.144C290.278 39.552 289.254 41.4293 288.187 43.776C287.163 46.1227 286.331 48.5973 285.691 51.2C285.222 53.2053 284.667 54.5707 284.027 55.296C283.43 55.9787 282.47 56.32 281.147 56.32ZM330.049 28.288C331.116 28.288 331.863 28.4587 332.289 28.8C332.759 29.0987 332.993 29.7173 332.993 30.656C332.993 31.168 332.972 31.5733 332.929 31.872C332.759 33.1947 332.225 36.608 331.329 42.112C330.689 45.824 330.284 48.2773 330.113 49.472C328.492 60.48 326.295 69.1627 323.521 75.52C320.791 81.92 317.121 85.12 312.513 85.12C310.337 85.12 308.567 84.4373 307.201 83.072C305.836 81.7493 305.153 80 305.153 77.824C305.153 74.7947 306.348 71.5307 308.737 68.032C311.127 64.576 315.607 60.3093 322.177 55.232L322.561 52.736C321.836 53.888 320.876 54.784 319.681 55.424C318.529 56.0213 317.377 56.32 316.225 56.32C313.58 56.32 311.468 55.36 309.889 53.44C308.311 51.52 307.521 49.0027 307.521 45.888C307.521 42.4747 308.311 39.2533 309.889 36.224C311.468 33.152 313.559 30.6987 316.161 28.864C318.807 26.9867 321.601 26.048 324.545 26.048C325.484 26.048 326.103 26.24 326.401 26.624C326.743 26.9653 327.02 27.6053 327.233 28.544C328.044 28.3733 328.983 28.288 330.049 28.288ZM318.529 49.856C319.511 49.856 320.449 49.2587 321.345 48.064C322.241 46.8693 322.881 45.1627 323.265 42.944L325.313 32C323.564 32.0427 321.943 32.7253 320.449 34.048C318.956 35.328 317.761 37.0347 316.865 39.168C315.969 41.3013 315.521 43.5627 315.521 45.952C315.521 47.2747 315.777 48.256 316.289 48.896C316.844 49.536 317.591 49.856 318.529 49.856ZM313.217 78.912C314.284 78.912 315.479 77.632 316.801 75.072C318.167 72.512 319.468 68.4373 320.705 62.848C317.42 65.664 315.052 68.2027 313.601 70.464C312.151 72.7253 311.425 74.7093 311.425 76.416C311.425 77.1413 311.553 77.7387 311.809 78.208C312.108 78.6773 312.577 78.912 313.217 78.912Z" fill="#E11D48"/>
</svg>
