<svg width="202" height="32" viewBox="0 0 202 32" fill="none" xmlns="http://www.w3.org/2000/svg">
<path d="M11.2472 1.72727H17.4744V17.6818C17.4669 19.197 17.0843 20.5303 16.3267 21.6818C15.5767 22.8258 14.5388 23.7197 13.2131 24.3636C11.8949 25 10.3759 25.3182 8.65625 25.3182C7.16383 25.3182 5.80019 25.0606 4.56534 24.5455C3.33049 24.0227 2.34564 23.2045 1.6108 22.0909C0.875947 20.9697 0.512311 19.5152 0.519886 17.7273H6.83807C6.8608 18.3106 6.95928 18.803 7.13352 19.2045C7.31534 19.6061 7.56534 19.9091 7.88352 20.1136C8.20928 20.3106 8.60322 20.4091 9.06534 20.4091C9.53504 20.4091 9.92898 20.3068 10.2472 20.1023C10.5729 19.8977 10.8191 19.5947 10.9858 19.1932C11.1525 18.7841 11.2396 18.2803 11.2472 17.6818V1.72727ZM31.8778 17.3636V7.54545H38.1506V25H32.196V21.6818H32.0142C31.6354 22.7955 30.9725 23.6667 30.0256 24.2955C29.0786 24.9167 27.9536 25.2273 26.6506 25.2273C25.4309 25.2273 24.3627 24.947 23.446 24.3864C22.5369 23.8258 21.8286 23.053 21.321 22.0682C20.821 21.0833 20.5672 19.9545 20.5597 18.6818V7.54545H26.8324V17.3636C26.84 18.2273 27.0597 18.9053 27.4915 19.3977C27.9309 19.8902 28.5445 20.1364 29.3324 20.1364C29.8551 20.1364 30.3059 20.0265 30.6847 19.8068C31.071 19.5795 31.3665 19.2614 31.571 18.8523C31.7831 18.4356 31.8854 17.9394 31.8778 17.3636ZM57.2955 13.2273H51.5227C51.4924 12.8712 51.3674 12.5644 51.1477 12.3068C50.928 12.0492 50.6439 11.8523 50.2955 11.7159C49.9545 11.572 49.5758 11.5 49.1591 11.5C48.6212 11.5 48.1591 11.5985 47.7727 11.7955C47.3864 11.9924 47.197 12.2727 47.2045 12.6364C47.197 12.8939 47.3068 13.1326 47.5341 13.3523C47.7689 13.572 48.2197 13.7424 48.8864 13.8636L52.4318 14.5C54.2197 14.8258 55.5492 15.375 56.4205 16.1477C57.2992 16.9129 57.7424 17.9394 57.75 19.2273C57.7424 20.4697 57.3712 21.5492 56.6364 22.4659C55.9091 23.375 54.9129 24.0795 53.6477 24.5795C52.3902 25.072 50.9545 25.3182 49.3409 25.3182C46.6742 25.3182 44.5871 24.7727 43.0795 23.6818C41.5795 22.5909 40.7424 21.1515 40.5682 19.3636H46.7955C46.8788 19.9167 47.1515 20.3447 47.6136 20.6477C48.0833 20.9432 48.6742 21.0909 49.3864 21.0909C49.9621 21.0909 50.4356 20.9924 50.8068 20.7955C51.1856 20.5985 51.3788 20.3182 51.3864 19.9545C51.3788 19.6212 51.2121 19.3561 50.8864 19.1591C50.5682 18.9621 50.0682 18.803 49.3864 18.6818L46.2955 18.1364C44.5152 17.8258 43.1818 17.2348 42.2955 16.3636C41.4091 15.4924 40.9697 14.3712 40.9773 13C40.9697 11.7879 41.2879 10.7614 41.9318 9.92045C42.5833 9.07197 43.5114 8.42803 44.7159 7.98864C45.928 7.54167 47.3636 7.31818 49.0227 7.31818C51.5455 7.31818 53.5341 7.84091 54.9886 8.88636C56.4508 9.93182 57.2197 11.3788 57.2955 13.2273ZM70.5625 7.54545V12.0909H59.0625V7.54545H70.5625ZM61.2898 3.36364H67.5625V19.3864C67.5625 19.6288 67.6042 19.8333 67.6875 20C67.7708 20.1591 67.8996 20.2803 68.0739 20.3636C68.2481 20.4394 68.4716 20.4773 68.7443 20.4773C68.9337 20.4773 69.1534 20.4545 69.4034 20.4091C69.661 20.3636 69.8504 20.3258 69.9716 20.2955L70.8807 24.7045C70.6004 24.7879 70.1989 24.8902 69.6761 25.0114C69.161 25.1326 68.5473 25.2121 67.8352 25.25C66.3958 25.3258 65.1875 25.178 64.2102 24.8068C63.233 24.428 62.4981 23.8333 62.0057 23.0227C61.5133 22.2121 61.2746 21.197 61.2898 19.9773V3.36364Z" fill="black"/>
<path d="M82.6222 1.72727H88.8494V17.6818C88.8419 19.197 88.4593 20.5303 87.7017 21.6818C86.9517 22.8258 85.9138 23.7197 84.5881 24.3636C83.2699 25 81.7509 25.3182 80.0312 25.3182C78.5388 25.3182 77.1752 25.0606 75.9403 24.5455C74.7055 24.0227 73.7206 23.2045 72.9858 22.0909C72.2509 20.9697 71.8873 19.5152 71.8949 17.7273H78.2131C78.2358 18.3106 78.3343 18.803 78.5085 19.2045C78.6903 19.6061 78.9403 19.9091 79.2585 20.1136C79.5843 20.3106 79.9782 20.4091 80.4403 20.4091C80.91 20.4091 81.304 20.3068 81.6222 20.1023C81.9479 19.8977 82.1941 19.5947 82.3608 19.1932C82.5275 18.7841 82.6146 18.2803 82.6222 17.6818V1.72727ZM100.344 25.3182C98.4498 25.3182 96.8286 24.9432 95.4801 24.1932C94.1316 23.4356 93.0975 22.3826 92.3778 21.0341C91.6581 19.678 91.2983 18.1061 91.2983 16.3182C91.2983 14.5303 91.6581 12.9621 92.3778 11.6136C93.0975 10.2576 94.1316 9.20454 95.4801 8.45454C96.8286 7.69697 98.4498 7.31818 100.344 7.31818C102.238 7.31818 103.859 7.69697 105.207 8.45454C106.556 9.20454 107.59 10.2576 108.31 11.6136C109.029 12.9621 109.389 14.5303 109.389 16.3182C109.389 18.1061 109.029 19.678 108.31 21.0341C107.59 22.3826 106.556 23.4356 105.207 24.1932C103.859 24.9432 102.238 25.3182 100.344 25.3182ZM100.389 20.6818C100.92 20.6818 101.378 20.5038 101.764 20.1477C102.151 19.7917 102.45 19.2841 102.662 18.625C102.874 17.9659 102.98 17.1818 102.98 16.2727C102.98 15.3561 102.874 14.572 102.662 13.9205C102.45 13.2614 102.151 12.7538 101.764 12.3977C101.378 12.0417 100.92 11.8636 100.389 11.8636C99.8286 11.8636 99.3475 12.0417 98.946 12.3977C98.5445 12.7538 98.2377 13.2614 98.0256 13.9205C97.8134 14.572 97.7074 15.3561 97.7074 16.2727C97.7074 17.1818 97.8134 17.9659 98.0256 18.625C98.2377 19.2841 98.5445 19.7917 98.946 20.1477C99.3475 20.5038 99.8286 20.6818 100.389 20.6818ZM120.344 31.9091C118.594 31.9091 117.094 31.6591 115.844 31.1591C114.601 30.6667 113.635 29.9848 112.946 29.1136C112.264 28.25 111.882 27.2576 111.798 26.1364H117.844C117.904 26.5076 118.056 26.8068 118.298 27.0341C118.541 27.2614 118.851 27.4242 119.23 27.5227C119.616 27.6288 120.048 27.6818 120.526 27.6818C121.336 27.6818 122.007 27.4848 122.537 27.0909C123.075 26.697 123.344 25.9848 123.344 24.9545V22H123.162C122.935 22.5909 122.586 23.0947 122.116 23.5114C121.647 23.9205 121.082 24.2348 120.423 24.4545C119.764 24.6667 119.041 24.7727 118.253 24.7727C117.01 24.7727 115.866 24.4848 114.821 23.9091C113.783 23.3333 112.95 22.4205 112.321 21.1705C111.7 19.9205 111.389 18.2879 111.389 16.2727C111.389 14.1667 111.715 12.4545 112.366 11.1364C113.026 9.81818 113.874 8.85227 114.912 8.23864C115.957 7.625 117.056 7.31818 118.207 7.31818C119.071 7.31818 119.829 7.4697 120.48 7.77273C121.132 8.06818 121.677 8.46591 122.116 8.96591C122.556 9.45833 122.889 10 123.116 10.5909H123.253V7.54545H129.526V24.9545C129.526 26.4318 129.143 27.6856 128.378 28.7159C127.62 29.7538 126.552 30.5455 125.173 31.0909C123.795 31.6364 122.185 31.9091 120.344 31.9091ZM120.571 20.3182C121.147 20.3182 121.639 20.1591 122.048 19.8409C122.465 19.5152 122.783 19.053 123.003 18.4545C123.23 17.8485 123.344 17.1212 123.344 16.2727C123.344 15.4091 123.23 14.6705 123.003 14.0568C122.783 13.4356 122.465 12.9621 122.048 12.6364C121.639 12.303 121.147 12.1364 120.571 12.1364C119.995 12.1364 119.503 12.303 119.094 12.6364C118.692 12.9621 118.382 13.4356 118.162 14.0568C117.95 14.6705 117.844 15.4091 117.844 16.2727C117.844 17.1364 117.95 17.8712 118.162 18.4773C118.382 19.0758 118.692 19.5341 119.094 19.8523C119.503 20.1629 119.995 20.3182 120.571 20.3182ZM141.125 31.9091C139.375 31.9091 137.875 31.6591 136.625 31.1591C135.383 30.6667 134.417 29.9848 133.727 29.1136C133.045 28.25 132.663 27.2576 132.58 26.1364H138.625C138.686 26.5076 138.837 26.8068 139.08 27.0341C139.322 27.2614 139.633 27.4242 140.011 27.5227C140.398 27.6288 140.83 27.6818 141.307 27.6818C142.117 27.6818 142.788 27.4848 143.318 27.0909C143.856 26.697 144.125 25.9848 144.125 24.9545V22H143.943C143.716 22.5909 143.367 23.0947 142.898 23.5114C142.428 23.9205 141.864 24.2348 141.205 24.4545C140.545 24.6667 139.822 24.7727 139.034 24.7727C137.792 24.7727 136.648 24.4848 135.602 23.9091C134.564 23.3333 133.731 22.4205 133.102 21.1705C132.481 19.9205 132.17 18.2879 132.17 16.2727C132.17 14.1667 132.496 12.4545 133.148 11.1364C133.807 9.81818 134.655 8.85227 135.693 8.23864C136.739 7.625 137.837 7.31818 138.989 7.31818C139.852 7.31818 140.61 7.4697 141.261 7.77273C141.913 8.06818 142.458 8.46591 142.898 8.96591C143.337 9.45833 143.67 10 143.898 10.5909H144.034V7.54545H150.307V24.9545C150.307 26.4318 149.924 27.6856 149.159 28.7159C148.402 29.7538 147.333 30.5455 145.955 31.0909C144.576 31.6364 142.966 31.9091 141.125 31.9091ZM141.352 20.3182C141.928 20.3182 142.42 20.1591 142.83 19.8409C143.246 19.5152 143.564 19.053 143.784 18.4545C144.011 17.8485 144.125 17.1212 144.125 16.2727C144.125 15.4091 144.011 14.6705 143.784 14.0568C143.564 13.4356 143.246 12.9621 142.83 12.6364C142.42 12.303 141.928 12.1364 141.352 12.1364C140.777 12.1364 140.284 12.303 139.875 12.6364C139.473 12.9621 139.163 13.4356 138.943 14.0568C138.731 14.6705 138.625 15.4091 138.625 16.2727C138.625 17.1364 138.731 17.8712 138.943 18.4773C139.163 19.0758 139.473 19.5341 139.875 19.8523C140.284 20.1629 140.777 20.3182 141.352 20.3182ZM153.497 25V7.54545H159.77V25H153.497ZM156.634 5.72727C155.785 5.72727 155.058 5.44697 154.452 4.88636C153.846 4.32576 153.543 3.65151 153.543 2.86364C153.543 2.07576 153.846 1.40151 154.452 0.840908C155.058 0.280303 155.785 0 156.634 0C157.49 0 158.217 0.280303 158.815 0.840908C159.421 1.40151 159.724 2.07576 159.724 2.86364C159.724 3.65151 159.421 4.32576 158.815 4.88636C158.217 5.44697 157.49 5.72727 156.634 5.72727ZM169.239 15.1818V25H162.966V7.54545H168.92V10.8636H169.102C169.481 9.75758 170.148 8.89015 171.102 8.26136C172.064 7.63258 173.186 7.31818 174.466 7.31818C175.701 7.31818 176.773 7.60227 177.682 8.17045C178.598 8.73106 179.307 9.50379 179.807 10.4886C180.314 11.4735 180.564 12.5985 180.557 13.8636V25H174.284V15.1818C174.292 14.3182 174.072 13.6402 173.625 13.1477C173.186 12.6553 172.572 12.4091 171.784 12.4091C171.269 12.4091 170.818 12.5227 170.432 12.75C170.053 12.9697 169.761 13.2879 169.557 13.7045C169.352 14.1136 169.246 14.6061 169.239 15.1818ZM192.062 31.9091C190.312 31.9091 188.812 31.6591 187.562 31.1591C186.32 30.6667 185.354 29.9848 184.665 29.1136C183.983 28.25 183.6 27.2576 183.517 26.1364H189.562C189.623 26.5076 189.775 26.8068 190.017 27.0341C190.259 27.2614 190.57 27.4242 190.949 27.5227C191.335 27.6288 191.767 27.6818 192.244 27.6818C193.055 27.6818 193.725 27.4848 194.256 27.0909C194.794 26.697 195.062 25.9848 195.062 24.9545V22H194.881C194.653 22.5909 194.305 23.0947 193.835 23.5114C193.366 23.9205 192.801 24.2348 192.142 24.4545C191.483 24.6667 190.759 24.7727 189.972 24.7727C188.729 24.7727 187.585 24.4848 186.54 23.9091C185.502 23.3333 184.669 22.4205 184.04 21.1705C183.419 19.9205 183.108 18.2879 183.108 16.2727C183.108 14.1667 183.434 12.4545 184.085 11.1364C184.744 9.81818 185.593 8.85227 186.631 8.23864C187.676 7.625 188.775 7.31818 189.926 7.31818C190.79 7.31818 191.547 7.4697 192.199 7.77273C192.85 8.06818 193.396 8.46591 193.835 8.96591C194.275 9.45833 194.608 10 194.835 10.5909H194.972V7.54545H201.244V24.9545C201.244 26.4318 200.862 27.6856 200.097 28.7159C199.339 29.7538 198.271 30.5455 196.892 31.0909C195.513 31.6364 193.903 31.9091 192.062 31.9091ZM192.29 20.3182C192.866 20.3182 193.358 20.1591 193.767 19.8409C194.184 19.5152 194.502 19.053 194.722 18.4545C194.949 17.8485 195.062 17.1212 195.062 16.2727C195.062 15.4091 194.949 14.6705 194.722 14.0568C194.502 13.4356 194.184 12.9621 193.767 12.6364C193.358 12.303 192.866 12.1364 192.29 12.1364C191.714 12.1364 191.222 12.303 190.812 12.6364C190.411 12.9621 190.1 13.4356 189.881 14.0568C189.669 14.6705 189.562 15.4091 189.562 16.2727C189.562 17.1364 189.669 17.8712 189.881 18.4773C190.1 19.0758 190.411 19.5341 190.812 19.8523C191.222 20.1629 191.714 20.3182 192.29 20.3182Z" fill="#3E792F"/>
</svg>
